<?xml version="1.0" standalone="no"?>
<!DOCTYPE svg PUBLIC "-//W3C//DTD SVG 20010904//EN"
 "http://www.w3.org/TR/2001/REC-SVG-20010904/DTD/svg10.dtd">
<svg version="1.0" xmlns="http://www.w3.org/2000/svg"
 width="1440.000000pt" height="1440.000000pt" viewBox="0 0 1440.000000 1440.000000"
 preserveAspectRatio="xMidYMid meet">
<metadata>
Created by potrace 1.16, written by Peter Selinger 2001-2019
</metadata>
<g transform="translate(0.000000,1440.000000) scale(0.100000,-0.100000)"
fill="#000000" stroke="none">
<path d="M7336 13871 c-4 -6 0 -14 8 -17 9 -3 16 -18 16 -33 0 -14 13 -80 30
-146 16 -66 30 -134 30 -152 0 -17 4 -34 8 -37 5 -3 16 -40 26 -83 9 -43 22
-93 27 -111 12 -37 26 -118 36 -199 3 -29 9 -53 14 -53 5 0 9 -12 9 -26 0 -14
5 -35 11 -46 8 -15 8 -19 0 -14 -50 31 56 -75 131 -131 76 -57 213 -165 218
-172 3 -4 21 -18 40 -31 19 -13 46 -36 60 -50 14 -14 42 -38 63 -53 20 -16 47
-38 60 -50 12 -13 38 -33 57 -47 19 -14 45 -35 58 -47 13 -13 27 -23 32 -23 5
0 19 -10 32 -23 13 -12 39 -33 58 -47 78 -54 67 -60 -108 -60 -157 0 -190 -7
-141 -29 16 -7 27 -17 23 -22 -3 -5 2 -9 10 -9 9 0 25 -8 35 -17 26 -23 34
-30 115 -88 38 -28 78 -60 89 -72 11 -13 27 -23 34 -23 7 0 13 -4 13 -10 0 -5
6 -10 13 -10 7 0 19 -9 27 -20 8 -11 19 -20 25 -20 5 0 24 -14 42 -30 18 -17
37 -30 42 -30 6 0 11 -4 11 -9 0 -4 26 -26 58 -49 31 -22 73 -55 92 -71 19
-17 41 -31 48 -31 6 0 12 -4 12 -9 0 -5 19 -23 43 -40 23 -17 55 -41 71 -53
16 -13 74 -57 129 -98 56 -41 102 -80 104 -86 4 -11 -48 -20 -152 -29 -23 -2
-39 -8 -37 -14 1 -6 -13 -11 -33 -11 -19 0 -35 -3 -35 -7 0 -7 -24 -11 -104
-16 -21 -2 -31 4 -37 21 -7 18 -5 22 12 22 11 0 18 -4 15 -9 -11 -17 22 -20
44 -4 14 10 33 13 53 9 20 -3 26 -2 17 3 -8 4 -38 11 -65 14 -72 8 -105 25
-105 54 0 20 -5 23 -40 23 -29 0 -40 4 -40 15 0 22 -37 55 -60 55 -11 0 -20 5
-20 10 0 6 12 10 26 10 39 0 16 22 -60 60 -72 35 -73 35 -92 15 -21 -21 -32
-19 -36 6 -2 12 -12 27 -23 33 -11 6 -22 13 -25 16 -3 3 -28 15 -57 26 l-51
22 -6 -32 c-3 -17 -6 -110 -7 -206 -1 -96 -4 -181 -7 -187 -3 -10 -94 -13
-407 -13 l-402 0 -6 -57 c-3 -31 -11 -59 -17 -63 -8 -5 -6 -9 5 -14 9 -3 255
-6 546 -6 l529 0 6 -25 c5 -21 11 -24 28 -19 11 4 23 11 24 15 2 5 12 9 23 9
11 0 27 4 37 9 23 12 112 52 137 61 31 12 97 41 129 56 16 8 35 14 43 14 7 0
13 5 13 10 0 6 11 10 25 10 14 0 25 5 25 10 0 6 9 10 19 10 11 0 23 5 26 10 3
6 15 10 25 10 10 0 20 5 22 11 2 6 13 10 23 7 15 -2 6 -12 -40 -40 -33 -21
-65 -42 -72 -48 -7 -5 -19 -10 -28 -10 -8 0 -15 -4 -15 -10 0 -5 -4 -10 -10
-10 -5 0 -44 -22 -86 -50 -42 -27 -83 -50 -90 -50 -8 0 -14 -4 -14 -10 0 -5
-7 -10 -15 -10 -8 0 -15 -4 -15 -10 0 -5 -7 -10 -15 -10 -8 0 -15 -4 -15 -8 0
-5 -12 -15 -27 -23 -16 -7 -56 -32 -90 -54 l-63 -40 0 -297 0 -298 -350 0
c-192 0 -350 -3 -350 -6 0 -4 14 -20 30 -36 17 -15 30 -30 30 -33 0 -8 39 -45
48 -45 4 0 13 -9 20 -20 12 -20 22 -21 139 -19 147 2 136 11 153 -124 6 -45
13 -100 16 -122 7 -55 22 -83 69 -130 22 -22 89 -91 148 -153 60 -61 113 -109
118 -106 12 7 11 32 -2 36 -13 4 -14 295 -1 311 5 7 12 28 15 47 12 74 20 100
28 100 5 0 9 9 9 19 0 28 15 35 105 44 44 4 125 12 180 18 261 26 409 40 605
57 53 4 100 11 106 15 13 8 73 16 209 28 55 5 141 13 190 18 50 5 149 14 220
20 128 11 244 23 400 41 44 5 123 14 175 19 52 6 133 15 180 20 47 6 130 15
185 20 55 6 142 15 193 21 50 5 134 15 185 20 50 6 144 14 207 19 63 4 123 11
132 15 13 6 26 -1 48 -25 16 -19 33 -42 36 -51 3 -10 10 -18 15 -18 5 0 9 -6
9 -14 0 -8 3 -16 8 -18 4 -1 27 -43 51 -93 24 -49 47 -98 52 -107 5 -10 9 -25
9 -33 0 -8 5 -15 10 -15 6 0 10 -11 10 -24 0 -14 5 -28 10 -31 6 -3 10 -19 10
-35 0 -16 4 -31 9 -34 4 -3 12 -29 16 -58 10 -65 11 -400 1 -448 -10 -50 -27
-111 -38 -140 -6 -14 -15 -36 -21 -50 -5 -14 -13 -33 -18 -42 -5 -10 -9 -25
-9 -33 0 -8 -4 -15 -8 -15 -5 0 -14 -16 -22 -35 -8 -19 -17 -35 -22 -35 -4 0
-8 -6 -8 -12 0 -7 -11 -26 -25 -42 -14 -16 -25 -33 -25 -37 0 -5 -16 -24 -35
-44 -25 -25 -42 -34 -58 -31 -12 2 -62 10 -112 16 -49 6 -112 15 -140 20 -70
13 -120 21 -195 31 -129 19 -196 28 -255 38 -33 6 -89 15 -125 21 -36 5 -92
15 -125 20 -33 6 -82 13 -110 16 -27 3 -59 9 -70 14 -11 5 -42 12 -70 15 -61
7 -158 21 -245 35 -36 6 -87 13 -115 16 -27 3 -59 9 -70 14 -11 5 -42 11 -70
14 -27 3 -81 10 -120 16 -38 6 -90 13 -115 16 -25 3 -54 9 -65 14 -11 5 -45
11 -75 14 -57 6 -130 17 -235 36 -33 6 -85 15 -115 19 -30 5 -86 15 -125 21
-122 20 -188 30 -280 40 -49 5 -117 14 -150 20 -33 7 -85 14 -115 17 -30 2
-59 9 -64 14 -14 12 -48 11 -44 -1 2 -6 46 -53 97 -105 52 -52 92 -97 90 -100
-3 -2 -126 -5 -273 -6 l-268 -1 6 -51 c4 -29 11 -79 16 -112 4 -33 11 -89 15
-125 4 -36 10 -74 15 -85 5 -11 11 -51 15 -90 8 -82 20 -174 35 -265 6 -36 13
-92 16 -125 3 -33 9 -69 14 -80 5 -11 11 -47 14 -80 3 -33 10 -91 16 -130 6
-38 15 -106 21 -150 20 -155 29 -221 39 -280 6 -33 15 -94 20 -135 5 -41 14
-104 19 -140 5 -36 15 -103 21 -150 6 -47 15 -114 20 -150 6 -36 14 -101 20
-145 6 -44 15 -111 20 -150 6 -38 13 -103 16 -142 4 -40 10 -73 15 -73 5 0 9
-29 9 -65 0 -85 11 -92 145 -94 55 -2 104 -6 110 -11 10 -8 47 -12 270 -26 55
-3 105 -10 112 -16 7 -5 16 -7 22 -4 12 8 41 -3 41 -15 0 -5 -13 -9 -30 -9
-16 0 -58 -13 -92 -29 -35 -16 -84 -34 -109 -42 -27 -7 -49 -20 -55 -32 -5
-11 -18 -25 -29 -31 -11 -6 -25 -18 -32 -26 -7 -8 -13 -11 -13 -7 0 5 -10 1
-22 -7 -12 -9 -28 -16 -35 -16 -7 0 -44 -20 -83 -45 -38 -24 -81 -47 -95 -49
-21 -4 -25 -1 -25 20 0 13 -5 24 -11 24 -5 0 -8 -4 -4 -9 3 -5 10 -63 15 -128
14 -158 34 -325 60 -478 14 -84 27 -194 40 -335 5 -58 14 -134 20 -170 6 -36
15 -99 20 -140 5 -41 14 -109 20 -150 5 -41 15 -115 20 -165 6 -49 16 -128 21
-175 6 -47 14 -123 19 -170 5 -47 14 -116 19 -155 6 -38 15 -124 20 -190 17
-204 19 -208 78 -184 15 6 38 15 51 20 12 5 32 13 45 18 12 5 39 15 60 22 20
7 37 17 37 21 0 4 5 8 10 8 6 0 30 9 52 20 23 11 48 20 55 20 7 0 13 5 13 10
0 6 6 10 13 10 18 0 67 24 67 33 0 4 10 7 23 7 12 0 33 9 47 20 14 11 31 20
38 20 8 0 26 8 40 18 15 10 41 24 57 32 17 8 32 17 35 21 3 3 21 13 40 22 19
10 58 31 85 48 28 16 58 32 68 36 9 3 17 9 17 14 0 5 7 9 15 9 8 0 15 5 15 10
0 6 7 10 15 10 8 0 15 5 15 10 0 6 5 10 11 10 6 0 30 13 54 30 24 17 46 30 49
30 5 0 28 17 60 45 6 6 23 16 39 24 15 8 27 18 27 23 0 4 6 8 13 8 7 0 19 9
27 20 8 11 19 20 24 20 11 0 113 77 137 102 9 10 20 18 23 18 4 0 13 6 20 12
7 7 28 24 46 38 36 26 114 96 161 142 16 16 31 28 34 28 14 0 381 363 420 415
17 22 44 54 61 72 18 17 45 49 60 70 16 21 44 53 62 71 17 18 32 36 32 41 0 5
13 24 30 42 16 19 30 37 30 41 0 4 11 18 25 32 14 14 25 30 25 36 0 5 5 10 10
10 6 0 10 7 10 15 0 8 5 15 10 15 6 0 10 7 10 15 0 8 5 15 10 15 6 0 10 6 10
13 0 7 9 19 20 27 11 8 20 22 20 31 0 10 4 19 8 21 12 4 112 155 112 168 0 5
4 10 9 10 5 0 11 8 14 18 6 17 37 72 47 82 9 9 39 63 67 120 15 30 30 57 33
60 11 11 30 51 30 65 0 8 5 15 10 15 6 0 10 9 10 20 0 11 5 20 10 20 6 0 10 9
10 20 0 11 3 20 8 20 8 0 32 49 32 67 0 7 5 13 10 13 6 0 10 6 10 13 0 18 24
67 33 67 4 0 7 11 7 24 0 14 5 28 10 31 6 3 10 15 10 26 0 10 5 19 10 19 6 0
10 7 10 15 0 8 4 23 9 33 5 9 13 28 18 42 18 44 35 84 44 102 5 10 9 27 9 37
0 11 4 22 8 25 4 3 14 28 22 56 8 28 18 53 22 56 4 3 8 16 8 29 0 13 5 27 10
30 6 3 10 19 10 34 0 15 3 31 7 35 11 10 33 79 33 103 0 12 5 25 10 28 6 3 10
19 10 35 0 16 4 31 9 34 5 3 11 20 14 38 9 55 18 92 27 113 5 11 11 40 14 65
3 25 10 65 16 90 14 56 28 133 41 225 5 39 14 102 20 140 25 177 51 545 50
725 -1 226 -22 523 -51 730 -6 41 -13 100 -16 130 -3 30 -9 64 -14 75 -5 11
-11 34 -13 50 -5 33 -23 124 -38 195 -6 25 -13 60 -16 78 -3 18 -9 35 -14 38
-5 3 -9 20 -9 39 0 19 -4 37 -10 40 -5 3 -10 16 -10 27 0 20 -11 59 -30 113
-20 54 -30 93 -30 113 0 12 -4 22 -10 22 -5 0 -10 10 -10 23 0 13 -4 27 -8 33
-4 5 -14 27 -21 49 -13 42 -27 78 -42 107 -5 10 -9 25 -9 33 0 8 -4 23 -9 33
-5 9 -13 28 -19 42 -5 14 -19 45 -30 70 -11 25 -26 62 -33 83 -7 20 -17 37
-21 37 -4 0 -8 9 -8 19 0 11 -4 23 -10 26 -5 3 -10 15 -10 26 0 10 -4 19 -10
19 -5 0 -10 9 -10 20 0 11 -4 20 -10 20 -5 0 -10 9 -10 20 0 11 -4 20 -10 20
-5 0 -10 9 -10 20 0 11 -4 20 -10 20 -5 0 -10 7 -10 15 0 14 -18 53 -30 65 -3
3 -12 18 -20 35 -8 16 -31 59 -51 95 -32 59 -45 81 -91 161 -7 12 -21 32 -30
43 -10 11 -18 24 -18 29 0 5 -8 17 -18 26 -10 9 -26 32 -35 52 -9 20 -23 42
-32 49 -8 7 -15 19 -15 26 0 8 -4 14 -10 14 -5 0 -10 7 -10 15 0 8 -4 15 -8
15 -4 0 -15 12 -24 28 -9 15 -28 41 -42 57 -14 17 -26 33 -26 38 0 4 -13 21
-30 39 -16 17 -30 36 -30 42 0 6 -9 18 -20 26 -11 8 -20 18 -20 22 0 9 -24 40
-67 84 -18 18 -33 37 -33 41 0 4 -22 31 -48 58 -26 28 -76 84 -112 125 -101
115 -389 400 -404 400 -2 0 -25 20 -50 45 -26 25 -51 45 -55 45 -5 0 -31 20
-57 45 -27 25 -53 45 -58 45 -5 0 -16 8 -25 18 -9 10 -32 29 -51 42 -19 14
-44 32 -54 42 -11 10 -24 18 -29 18 -5 0 -17 8 -26 18 -9 10 -45 38 -81 62
-36 24 -66 47 -68 52 -2 4 -12 8 -23 8 -10 0 -19 4 -19 8 0 5 -12 15 -27 23
-16 8 -37 22 -47 32 -11 9 -26 17 -33 17 -7 0 -13 4 -13 8 0 5 -12 15 -27 23
-16 8 -43 24 -62 36 -18 13 -59 35 -90 50 -31 15 -57 31 -59 35 -2 4 -10 8
-18 8 -8 0 -14 5 -14 10 0 6 -6 10 -13 10 -18 0 -67 24 -67 33 0 4 -5 7 -10 7
-15 0 -105 43 -108 52 -2 4 -12 8 -23 8 -10 0 -19 5 -19 10 0 6 -5 10 -10 10
-6 0 -30 9 -52 20 -23 11 -48 20 -55 20 -7 0 -13 5 -13 10 0 6 -6 10 -13 10
-12 0 -80 29 -119 50 -10 6 -27 10 -37 10 -11 0 -23 5 -26 10 -3 6 -15 10 -26
10 -10 0 -19 5 -19 10 0 6 -8 10 -18 10 -10 0 -22 3 -26 7 -9 10 -78 33 -98
33 -10 0 -18 5 -18 10 0 6 -11 10 -24 10 -14 0 -28 5 -31 10 -3 6 -17 10 -31
10 -13 0 -32 4 -42 9 -9 5 -37 15 -62 21 -25 7 -54 16 -65 20 -11 5 -33 11
-50 15 -16 3 -47 10 -67 15 -21 6 -56 15 -78 20 -22 6 -59 15 -82 21 -24 6
-58 13 -75 16 -18 3 -33 9 -33 14 0 5 -22 9 -49 9 -28 0 -52 4 -55 9 -3 4 -27
11 -53 15 -27 3 -79 11 -118 16 -321 48 -695 75 -709 51z"/>
<path d="M6240 13780 c0 -11 5 -20 10 -20 6 0 10 -5 10 -12 0 -6 22 -57 49
-112 26 -56 52 -112 56 -126 4 -14 14 -34 21 -45 8 -11 14 -27 14 -35 0 -9 13
-43 28 -76 42 -87 143 -318 171 -389 4 -11 19 -45 33 -75 52 -113 59 -144 36
-153 -7 -2 -9 -8 -5 -13 4 -5 11 -4 15 2 4 5 28 22 53 36 25 15 63 43 85 62
21 20 43 36 47 36 4 0 22 13 40 30 18 16 37 30 42 30 6 0 17 9 25 20 8 11 20
20 26 20 7 0 14 3 16 8 4 10 104 92 113 92 3 0 25 19 47 43 40 41 41 42 17 46
-13 1 -35 14 -48 27 -13 13 -28 24 -32 24 -5 0 -28 18 -50 40 -23 22 -48 40
-55 40 -8 0 -14 4 -14 9 0 5 -24 24 -52 42 -29 19 -54 37 -56 41 -2 5 -8 8
-13 8 -5 0 -35 20 -68 45 -32 25 -64 45 -70 45 -6 0 -11 4 -11 8 0 5 -42 37
-92 70 -51 34 -111 77 -132 97 -22 19 -46 35 -53 35 -7 0 -13 4 -13 8 0 10
-87 72 -100 72 -6 0 -10 9 -10 20 0 17 -7 20 -40 20 -33 0 -40 -3 -40 -20z"/>
<path d="M5735 13165 c-16 -25 -36 -45 -42 -45 -7 0 -13 -7 -13 -15 0 -8 -11
-26 -24 -41 -32 -35 -43 -50 -96 -119 -53 -70 -79 -102 -102 -127 -10 -10 -18
-22 -18 -27 0 -5 -3 -11 -7 -13 -8 -3 -86 -99 -165 -203 -25 -33 -55 -70 -67
-82 -12 -12 -21 -26 -21 -30 0 -5 -9 -15 -20 -23 -11 -8 -20 -20 -20 -27 0 -7
-4 -13 -10 -13 -5 0 -10 -6 -10 -12 0 -7 -15 -29 -33 -49 -54 -62 -67 -79 -67
-89 0 -6 -4 -10 -8 -10 -4 0 -16 -14 -26 -30 -9 -17 -28 -41 -42 -55 -13 -13
-24 -26 -24 -29 0 -5 -8 -16 -52 -68 -10 -12 -18 -25 -18 -30 0 -4 -4 -8 -9
-8 -9 0 -151 134 -151 143 0 2 -26 32 -57 65 -32 33 -85 91 -118 128 -33 37
-68 75 -77 86 -10 10 -18 19 -18 21 0 2 -33 38 -72 80 -40 42 -92 98 -116 124
-121 136 -160 173 -180 173 -12 0 -22 -4 -22 -10 0 -5 -6 -10 -13 -10 -7 0
-19 -9 -27 -20 -8 -11 -19 -20 -25 -20 -5 0 -30 -18 -54 -40 -24 -22 -48 -40
-53 -40 -6 0 -23 -13 -38 -30 -15 -16 -33 -30 -38 -30 -6 0 -83 -72 -171 -160
-89 -88 -167 -160 -173 -160 -6 0 -9 -3 -6 -6 3 -3 -48 -59 -113 -125 -65 -66
-119 -123 -119 -128 0 -4 -13 -22 -30 -39 -16 -18 -30 -34 -30 -36 0 -3 -10
-16 -22 -29 -56 -58 -98 -107 -98 -114 0 -5 -9 -15 -20 -23 -11 -8 -20 -18
-20 -23 0 -12 -81 -117 -91 -117 -5 0 -9 -5 -9 -11 0 -12 -61 -102 -72 -107
-5 -2 -8 -9 -8 -15 0 -7 -11 -25 -25 -41 -13 -16 -27 -37 -30 -47 -4 -11 -10
-19 -14 -19 -4 0 -13 -16 -21 -35 -8 -19 -16 -35 -19 -35 -4 0 -12 -13 -19
-28 -6 -16 -21 -38 -32 -50 -11 -12 -20 -28 -20 -37 0 -8 -4 -15 -8 -15 -5 0
-14 -16 -22 -35 -8 -19 -17 -35 -22 -35 -4 0 -8 -6 -8 -14 0 -8 -3 -16 -8 -18
-4 -1 -34 -57 -68 -123 -33 -66 -65 -129 -71 -140 -20 -35 -53 -114 -53 -125
0 -5 -4 -10 -10 -10 -5 0 -10 -7 -10 -15 0 -8 -4 -23 -9 -33 -8 -16 -15 -31
-43 -99 -7 -18 -16 -33 -20 -33 -5 0 -8 -11 -8 -25 0 -14 -4 -33 -9 -43 -16
-31 -29 -66 -51 -132 -12 -36 -25 -74 -30 -85 -21 -47 -50 -143 -50 -163 0
-11 -5 -24 -10 -27 -5 -3 -10 -15 -10 -26 0 -10 -4 -27 -9 -37 -5 -9 -15 -44
-22 -77 -7 -33 -16 -64 -21 -69 -4 -6 -8 -25 -8 -42 0 -18 -4 -35 -9 -38 -4
-3 -11 -27 -15 -53 -10 -79 -17 -117 -26 -138 -5 -11 -12 -40 -15 -65 -3 -25
-10 -76 -15 -115 -6 -38 -12 -97 -16 -130 -3 -33 -9 -69 -14 -80 -14 -33 -24
-339 -24 -710 1 -319 7 -448 33 -635 5 -36 12 -90 16 -120 3 -30 11 -64 15
-75 11 -23 41 -163 47 -215 2 -19 8 -44 13 -55 11 -28 41 -153 47 -198 3 -20
9 -40 14 -43 5 -3 9 -16 9 -30 0 -13 4 -32 9 -42 13 -26 31 -86 31 -105 0 -10
4 -26 10 -37 6 -11 15 -29 20 -40 5 -11 10 -29 10 -39 0 -11 4 -23 10 -26 6
-3 10 -19 10 -35 0 -16 5 -32 10 -35 6 -3 10 -17 10 -31 0 -13 4 -32 9 -42 8
-16 17 -36 41 -97 6 -14 15 -36 20 -50 10 -26 19 -47 42 -102 7 -18 16 -33 20
-33 5 0 8 -9 8 -19 0 -11 5 -23 10 -26 6 -3 10 -17 10 -31 0 -13 5 -24 10 -24
6 0 10 -9 10 -20 0 -11 5 -20 10 -20 6 0 10 -9 10 -20 0 -11 5 -20 10 -20 6 0
10 -9 10 -19 0 -11 3 -21 8 -23 4 -1 21 -30 38 -64 43 -84 78 -148 85 -154 3
-3 12 -20 20 -37 8 -18 16 -33 20 -33 3 0 11 -16 19 -35 8 -19 17 -35 22 -35
4 0 8 -6 8 -13 0 -7 8 -22 18 -33 10 -10 25 -34 32 -51 8 -18 18 -33 22 -33 5
0 8 -5 8 -10 0 -6 9 -20 20 -32 10 -11 26 -36 35 -54 9 -19 27 -45 40 -59 14
-13 25 -31 25 -40 0 -8 4 -15 8 -15 4 0 15 -13 25 -29 9 -16 30 -43 47 -61 16
-18 30 -36 30 -40 0 -4 13 -22 29 -39 20 -22 38 -31 59 -31 17 0 34 -4 37 -10
3 -5 17 -10 29 -10 13 0 39 -6 57 -14 30 -13 32 -15 14 -21 -11 -4 -28 -11
-37 -16 -10 -5 -27 -9 -38 -9 -11 0 -20 -3 -20 -7 0 -8 91 -115 142 -166 21
-21 38 -41 38 -44 0 -2 18 -23 40 -45 22 -23 40 -45 40 -50 0 -4 6 -8 14 -8 8
0 17 -8 20 -17 3 -10 19 -27 36 -38 16 -11 30 -24 30 -28 0 -5 17 -25 39 -45
106 -102 140 -132 146 -132 4 0 23 -17 44 -37 20 -21 53 -50 72 -64 19 -15 54
-45 79 -68 25 -22 48 -41 52 -41 4 0 18 -10 30 -22 13 -13 44 -39 68 -58 25
-19 47 -38 48 -42 2 -4 9 -8 15 -8 7 0 25 -11 41 -25 16 -14 33 -25 37 -25 4
0 14 -6 21 -13 7 -7 42 -33 78 -57 36 -24 67 -47 68 -52 2 -4 10 -8 18 -8 8 0
24 -9 36 -20 12 -11 28 -20 35 -20 7 0 13 -4 13 -8 0 -5 17 -17 38 -29 84 -46
117 -66 125 -77 5 -7 15 -2 30 16 12 15 34 42 50 60 59 71 77 96 77 107 0 6 4
11 8 11 5 0 21 18 38 40 16 22 34 40 40 40 14 0 44 44 44 65 0 8 4 15 9 15 5
0 7 -18 4 -40 -6 -39 -5 -40 26 -40 26 0 31 -4 31 -25 0 -25 -25 -46 -47 -38
-6 2 -14 -1 -18 -6 -4 -7 7 -11 29 -11 27 0 36 -4 36 -16 0 -18 44 -64 61 -64
5 0 9 -18 9 -40 0 -29 -4 -40 -15 -40 -11 0 -15 -11 -14 -42 1 -34 2 -38 8
-19 9 33 25 37 38 9 12 -28 -13 -105 -37 -111 -10 -3 -9 -5 5 -6 11 0 31 -11
45 -24 25 -22 128 -53 218 -64 23 -3 42 -9 42 -13 0 -5 26 -14 57 -21 32 -6
69 -20 82 -31 40 -31 51 -8 62 123 6 63 14 150 20 194 9 80 16 143 39 372 l13
122 -27 31 c-14 17 -26 36 -26 42 0 6 -6 19 -14 27 -8 9 -30 47 -50 85 -20 37
-45 80 -56 93 -11 14 -20 32 -20 40 0 12 -26 60 -40 73 -3 3 -13 20 -22 38
-19 36 -23 68 -10 76 5 3 10 38 10 78 1 40 7 100 12 133 22 125 30 182 30 231
0 27 4 54 9 60 12 12 17 101 7 135 -6 20 -3 28 9 33 12 4 14 14 10 40 -4 20
-2 36 4 41 6 3 9 10 7 13 -2 4 -1 44 3 88 6 80 6 80 -16 76 -21 -4 -23 -1 -23
36 0 23 -5 42 -12 44 -7 3 -12 21 -11 41 1 32 -2 37 -20 37 -18 0 -19 -2 -7
-10 11 -7 12 -12 4 -17 -7 -5 -14 -17 -16 -28 -3 -11 -6 -2 -9 23 -4 35 -2 42
13 42 14 0 18 8 18 35 0 19 -4 35 -9 35 -6 0 -12 19 -14 42 l-4 43 -1 -42 c-1
-31 -6 -43 -17 -43 -11 0 -15 11 -15 40 0 36 -2 40 -25 40 -20 0 -25 5 -25 24
0 13 -7 26 -15 30 -11 4 -15 20 -15 54 l0 49 -40 7 c-38 6 -40 8 -40 41 0 19
-4 35 -10 35 -5 0 -10 18 -10 40 0 29 -4 40 -15 40 -11 0 -15 11 -15 40 0 39
-1 40 -35 40 -34 0 -35 1 -36 38 0 20 0 56 1 80 l2 42 -46 0 -46 0 0 40 c0 36
-2 40 -25 40 -22 0 -25 4 -25 40 0 29 -4 40 -15 40 -8 0 -15 6 -15 14 0 8 -13
19 -28 24 -28 10 -29 12 -24 66 3 38 1 56 -7 56 -6 0 -11 17 -11 40 l0 40 -44
0 c-43 0 -44 0 -50 40 -5 31 -11 40 -26 40 -18 0 -20 7 -20 80 0 47 -4 80 -10
80 -5 0 -10 18 -10 40 0 38 -2 40 -30 40 -28 0 -30 2 -30 40 0 22 -4 40 -10
40 -5 0 -10 18 -10 40 l0 40 -60 0 -60 0 0 38 c0 27 -3 33 -10 22 -8 -13 -10
-12 -10 3 0 9 -7 17 -15 17 -8 0 -15 9 -15 20 0 16 -7 20 -35 20 -22 0 -38 6
-41 15 -4 9 -19 15 -41 15 -19 0 -41 7 -49 15 -9 8 -25 15 -37 15 -22 1 -22 1
-3 15 15 11 16 15 5 16 -48 5 -63 7 -82 16 -26 12 -201 50 -272 59 -27 4 -60
13 -72 20 -28 18 -33 18 -33 -1 0 -9 11 -28 24 -42 14 -15 33 -42 43 -62 10
-19 29 -48 43 -63 52 -57 61 -69 71 -91 5 -12 34 -56 65 -97 30 -41 57 -83 61
-92 3 -10 12 -18 19 -18 9 0 14 -11 14 -30 0 -16 4 -30 9 -30 15 0 71 -89 71
-111 0 -12 13 -33 29 -48 15 -14 36 -42 46 -61 10 -19 22 -38 27 -41 5 -3 9
-25 10 -47 0 -23 4 -42 9 -42 5 0 9 -13 9 -30 0 -17 5 -30 13 -30 9 0 9 -2 0
-8 -6 -4 -13 -39 -16 -77 -3 -39 -8 -86 -11 -105 -5 -32 -4 -33 3 -5 l9 30 1
-27 c0 -15 -3 -30 -9 -33 -6 -3 -10 -17 -10 -30 0 -12 -7 -25 -15 -29 -19 -7
-19 -35 0 -42 12 -5 15 -24 15 -85 0 -46 4 -79 10 -79 7 0 10 -180 10 -520 0
-340 -3 -520 -10 -520 -5 0 -10 -18 -10 -40 0 -36 3 -40 25 -40 14 0 25 -5 25
-11 0 -8 -17 -10 -50 -7 -36 4 -50 2 -50 -8 0 -7 6 -15 13 -17 25 -11 -16 -25
-92 -31 -92 -8 -261 -33 -316 -47 -44 -11 -166 -28 -265 -36 -36 -2 -70 -9
-76 -14 -14 -11 -137 -20 -151 -11 -13 9 -23 61 -12 68 5 3 9 24 9 47 1 23 5
62 11 87 5 25 12 70 15 100 3 30 9 73 14 95 5 22 10 64 10 93 0 33 4 51 10 47
6 -4 10 9 10 32 0 21 7 83 16 138 26 168 41 276 69 508 8 71 17 133 20 137 3
5 9 44 14 87 5 43 19 143 31 223 12 80 24 175 27 213 3 37 9 67 13 67 4 0 10
33 13 73 3 39 20 169 37 287 47 325 49 341 56 398 4 29 10 55 15 58 5 3 9 16
9 29 0 14 9 39 20 57 11 18 20 41 20 50 0 10 9 37 19 60 31 68 45 106 86 218
20 58 41 115 46 128 5 12 13 32 18 45 5 12 14 35 20 50 6 15 11 37 11 47 0 11
5 20 10 20 6 0 10 7 10 15 0 8 4 23 9 33 8 16 20 49 45 120 6 17 14 32 18 32
5 0 8 7 8 15 0 8 4 23 9 33 5 9 14 35 21 57 7 22 23 62 35 88 l23 49 -67 -6
c-159 -13 -197 -18 -205 -27 -6 -5 -34 -9 -63 -9 -29 0 -53 -4 -53 -9 0 -5
-26 -12 -57 -15 -57 -5 -120 -14 -253 -36 -36 -6 -90 -13 -120 -16 -30 -3 -64
-9 -75 -14 -11 -5 -45 -11 -75 -15 -30 -3 -82 -11 -115 -16 -33 -5 -82 -12
-110 -15 -27 -4 -54 -9 -60 -13 -5 -4 -26 -8 -45 -10 -19 -2 -40 -7 -47 -13
-7 -5 -43 -12 -80 -14 -37 -2 -89 -6 -115 -10 -34 -4 -48 -2 -48 6 0 21 -129
156 -145 152 -7 -1 -18 4 -24 12 -9 10 -8 15 2 19 16 6 13 80 -3 85 -6 2 -10
14 -10 27 0 13 -4 27 -10 30 -5 3 -10 17 -10 30 0 13 -4 27 -10 30 -5 3 -10
17 -10 30 0 13 -4 27 -10 30 -5 3 -10 23 -10 44 0 20 -5 42 -12 49 -17 17 -17
387 0 404 6 6 12 29 12 49 0 21 5 41 10 44 6 3 10 19 10 35 0 16 5 32 10 35 5
3 10 17 10 30 0 13 5 27 10 30 6 3 10 15 10 26 0 10 5 19 10 19 6 0 10 7 10
15 0 8 4 23 9 33 5 9 24 47 41 85 18 37 37 67 41 67 5 0 9 5 9 10 0 18 65 109
80 112 14 3 69 -2 265 -23 55 -5 143 -14 195 -20 52 -5 131 -13 175 -19 187
-22 289 -31 430 -39 182 -11 275 -21 275 -31 0 -4 44 -10 98 -14 53 -4 133
-11 177 -16 44 -5 169 -18 277 -28 108 -11 201 -23 206 -26 6 -3 57 -6 114 -7
89 -1 110 2 139 20 19 12 42 21 52 21 9 0 17 5 17 10 0 6 9 10 20 10 11 0 20
5 20 10 0 6 7 10 15 10 14 0 134 51 280 120 44 21 123 57 175 79 52 22 113 49
135 61 21 11 47 20 57 20 10 0 18 5 18 10 0 6 9 10 20 10 11 0 20 5 20 10 0 6
8 10 18 10 10 0 22 4 27 8 6 5 26 15 45 22 19 7 47 22 62 32 14 10 34 18 45
18 10 0 45 15 78 33 l59 33 4 132 c2 73 1 148 -2 167 l-7 34 -122 -6 c-67 -3
-124 -9 -127 -13 -3 -4 -112 -15 -242 -26 -131 -10 -238 -21 -238 -25 0 -3
-44 -7 -97 -8 -53 -1 -101 -5 -106 -8 -8 -4 -101 -14 -427 -43 -58 -5 -120
-12 -137 -16 -32 -6 -33 -6 -33 30 0 20 4 36 8 36 5 0 15 23 22 51 8 27 18 52
22 55 4 3 8 16 8 29 0 13 3 25 8 27 4 2 18 38 32 81 13 43 28 80 32 83 4 3 8
16 8 29 0 13 5 27 10 30 6 3 10 17 10 31 0 13 4 24 9 24 5 0 13 15 16 33 4 17
10 37 13 42 13 21 41 111 42 131 0 12 6 27 14 33 8 7 18 27 22 44 3 17 10 38
15 47 16 32 59 151 59 166 0 23 25 44 54 44 14 0 26 3 26 8 0 4 19 12 43 18
46 13 103 32 129 45 10 5 31 9 47 9 16 0 31 3 33 8 2 4 35 17 73 29 120 39
304 100 340 114 11 4 45 15 75 23 30 9 71 23 90 30 19 8 55 20 80 27 25 7 54
18 65 25 11 6 41 15 68 19 26 3 47 10 47 16 0 5 11 9 23 9 13 0 27 3 31 7 12
12 100 43 122 43 12 0 27 7 34 15 7 8 29 15 49 15 43 0 57 8 63 35 5 18 6 18
15 -5 6 -14 7 -26 2 -28 -17 -7 -71 -62 -60 -62 6 0 20 9 31 20 11 11 27 20
35 20 8 0 15 8 15 18 0 10 5 23 12 30 7 7 20 12 30 12 21 0 24 30 6 60 -10 15
-9 22 5 38 17 19 17 20 -5 26 -13 3 -35 6 -51 6 -33 0 -90 48 -82 68 6 15 -11
42 -26 42 -5 0 -9 -9 -9 -20 0 -11 -7 -20 -15 -20 -11 0 -15 11 -15 40 0 22
-5 40 -11 40 -14 0 -39 25 -39 39 0 6 -18 11 -40 11 -23 0 -40 5 -40 11 0 15
-84 99 -98 99 -6 0 -22 11 -36 25 -19 18 -36 25 -66 25 -22 0 -40 4 -40 10 0
5 -20 31 -45 57 -47 49 -51 74 -18 100 14 11 10 33 -5 33 -4 0 -20 -21 -37
-45z"/>
<path d="M7298 12214 c-7 -7 15 -34 28 -34 4 0 17 -12 30 -27 l24 -28 187 -3
c187 -3 233 0 233 18 0 11 44 56 62 63 24 8 -61 19 -109 13 -59 -7 -261 -7
-368 0 -44 3 -84 2 -87 -2z"/>
<path d="M6878 11208 c-3 -7 -28 -11 -71 -11 -37 1 -67 -2 -67 -7 0 -4 -69
-11 -152 -15 -484 -21 -497 -30 -48 -34 256 -2 292 -1 306 14 9 9 29 19 45 22
16 3 26 9 23 14 -5 8 12 13 43 12 7 -1 10 3 7 8 -8 13 -82 11 -86 -3z"/>
<path d="M7264 10343 c3 -10 10 -42 16 -71 5 -30 12 -58 15 -63 7 -10 94 -12
119 -3 14 5 14 7 0 21 -11 11 -15 32 -13 72 l3 56 -73 3 c-66 3 -72 1 -67 -15z"/>
<path d="M5884 9728 c0 -88 -21 -208 -35 -208 -5 0 -9 -10 -9 -23 0 -13 -5
-28 -12 -35 -6 -6 -9 -15 -5 -19 9 -9 36 27 37 50 0 9 9 26 20 37 18 18 20 18
21 3 1 -10 5 0 10 22 7 27 6 41 -1 43 -6 2 -10 40 -10 93 l0 89 34 0 c18 0 48
-3 66 -6 l32 -7 -28 -13 c-16 -7 -23 -13 -16 -13 8 -1 12 -22 12 -70 0 -38 4
-71 9 -73 5 -1 11 -74 14 -160 5 -133 3 -158 -9 -158 -11 0 -14 -23 -14 -120
0 -100 3 -120 15 -120 11 0 15 -11 15 -40 0 -22 4 -40 8 -40 10 0 7 -178 -2
-188 -3 -3 -6 2 -6 11 0 9 -4 17 -10 17 -5 0 -11 10 -11 23 -1 20 -2 20 -6 2
-3 -11 -10 -23 -15 -26 -17 -11 2 -49 28 -55 24 -6 34 -24 13 -24 -8 0 -10
-17 -6 -56 7 -70 -10 -60 -22 12 l-9 49 -1 -42 c0 -23 -6 -43 -12 -45 -6 -2
-11 -26 -11 -53 0 -35 -2 -45 -10 -34 -5 8 -8 10 -6 4 25 -63 31 -75 38 -75 5
0 11 8 14 18 9 31 -5 -72 -15 -114 -7 -26 -19 -46 -32 -52 -15 -7 -17 -11 -6
-11 13 -1 15 -18 14 -116 0 -63 -4 -117 -8 -121 -4 -4 -7 2 -7 14 0 11 -5 24
-11 28 -8 5 -9 -6 -5 -37 4 -24 10 -71 14 -104 7 -51 8 -56 14 -30 4 17 9 53
13 80 3 28 10 77 15 110 6 33 18 125 26 205 16 138 21 175 44 323 5 34 14 102
19 150 15 134 31 264 43 342 6 39 12 96 14 127 1 32 6 62 9 68 4 7 11 46 16
88 5 42 13 106 18 142 5 36 13 92 17 126 l7 61 -34 1 c-41 1 -212 20 -254 28
l-30 5 -1 -83z"/>
<path d="M6800 9168 l0 -328 78 0 77 0 33 60 c18 33 37 60 42 60 6 0 10 7 10
15 0 18 77 138 91 143 5 2 9 15 9 28 0 13 5 24 10 24 6 0 10 6 10 13 0 7 9 23
20 35 11 12 20 24 20 28 0 4 8 16 17 26 19 22 32 193 16 209 -5 5 -103 11
-221 12 l-212 2 0 -327z"/>
<path d="M5280 7698 c0 -5 8 -8 18 -9 15 0 15 -1 -2 -8 -32 -13 -5 -19 72 -16
61 2 72 0 72 -14 0 -13 8 -16 40 -13 35 4 40 2 40 -17 0 -18 6 -21 40 -21 28
0 40 4 40 14 0 8 5 16 11 18 9 3 8 10 -1 25 -10 15 -28 23 -69 27 -109 13
-261 21 -261 14z"/>
<path d="M5666 7637 c-17 -12 -17 -15 -2 -29 9 -9 16 -21 16 -27 0 -6 14 -11
30 -11 17 0 30 -5 30 -12 0 -9 4 -8 10 2 5 8 10 11 10 6 0 -5 8 1 19 12 25 30
30 28 37 -18 8 -52 30 -51 38 1 7 47 12 46 26 -1 8 -28 7 -33 -10 -37 -11 -3
-20 -9 -20 -14 0 -5 -20 -9 -45 -9 -25 0 -45 -4 -45 -9 0 -6 -19 -14 -42 -18
l-43 -9 3 -50 c2 -27 8 -50 13 -52 5 -2 9 -17 9 -33 0 -16 9 -47 20 -69 11
-22 20 -46 20 -55 0 -8 4 -23 10 -33 17 -30 70 -206 70 -232 0 -14 4 -30 8
-37 13 -20 30 61 48 227 9 85 21 191 26 235 5 44 11 121 14 172 l5 91 -73 6
c-40 3 -93 8 -118 11 -31 4 -51 2 -64 -8z"/>
<path d="M7787 7133 c-10 -9 -9 -611 1 -617 16 -9 247 -35 347 -38 l100 -3 3
333 2 332 -223 0 c-123 0 -227 -3 -230 -7z"/>
<path d="M7767 2563 c-4 -3 -7 -281 -7 -616 0 -505 -2 -608 -13 -598 -10 7
-17 7 -24 0 -11 -11 -50 5 -65 26 -4 6 -8 0 -8 -12 0 -29 11 -35 73 -36 l52
-2 0 622 c0 343 0 623 -1 623 0 0 -4 -3 -7 -7z"/>
<path d="M7310 1005 c-8 -10 -11 -30 -7 -58 8 -60 -2 -74 -43 -57 -26 11 -39
11 -69 0 -41 -14 -71 -42 -71 -65 0 -9 -5 -25 -10 -36 -8 -14 -7 -37 1 -80 10
-49 18 -65 44 -85 32 -24 105 -34 105 -14 0 14 26 13 50 -2 10 -7 22 -10 25
-6 4 4 9 336 6 406 -1 16 -16 15 -31 -3z m-16 -153 c3 -5 6 -47 8 -95 2 -103
-8 -118 -82 -114 -39 2 -47 6 -59 32 -19 39 -27 125 -12 125 6 0 11 7 11 15 0
30 24 44 77 45 28 0 54 -4 57 -8z"/>
<path d="M8512 1008 c-8 -8 -12 -60 -12 -167 0 -165 11 -221 42 -221 10 0 18
-4 18 -10 0 -5 18 -10 41 -10 38 0 40 1 37 28 -2 21 -9 28 -30 30 -32 4 -33 8
-28 226 2 91 -1 120 -11 127 -20 12 -43 11 -57 -3z"/>
<path d="M9459 1018 c0 -2 -2 -23 -5 -48 -7 -69 -8 -70 -69 -70 -30 0 -55 -4
-55 -10 0 -5 -5 -10 -11 -10 -20 0 -36 -26 -48 -78 -11 -42 -10 -62 0 -104 14
-55 20 -65 57 -85 26 -15 78 -17 87 -3 8 13 45 13 45 0 0 -5 14 -10 30 -10
l30 0 0 198 c0 205 -3 222 -42 222 -10 0 -18 -1 -19 -2z m-11 -246 c4 -82 -13
-112 -64 -112 -23 0 -37 5 -41 17 -9 23 -9 102 0 136 7 26 11 28 55 25 l47 -3
3 -63z"/>
<path d="M10077 998 c-3 -13 -4 -40 -2 -60 l3 -38 -53 0 c-73 0 -100 -15 -125
-66 -23 -51 -25 -76 -8 -141 13 -51 20 -60 56 -80 26 -15 92 -17 92 -3 0 6 9
10 20 10 11 0 20 -4 20 -10 0 -5 14 -10 30 -10 l30 0 0 198 c0 141 -3 201 -12
210 -19 19 -45 14 -51 -10z m-6 -165 c7 -75 7 -133 -1 -133 -6 0 -10 -6 -10
-14 0 -26 -66 -36 -88 -14 -12 12 -17 124 -6 152 4 12 20 16 55 16 27 0 49 -3
50 -7z"/>
<path d="M7915 1003 c-11 -3 -28 -15 -37 -26 -15 -19 -18 -46 -18 -195 0 -187
1 -191 55 -178 24 6 25 9 25 91 l0 84 78 3 c75 3 77 4 77 28 0 24 -2 25 -77
28 l-78 3 0 57 0 57 75 -3 c94 -5 125 2 125 28 0 18 -7 20 -82 20 -46 0 -92 2
-103 4 -11 2 -29 2 -40 -1z"/>
<path d="M4320 990 c0 -5 -6 -10 -13 -10 -15 0 -37 -32 -54 -80 -17 -47 -16
-136 3 -185 8 -22 17 -47 20 -56 9 -25 81 -59 126 -59 47 0 118 19 118 32 0 9
-9 10 -100 9 -39 -1 -72 4 -81 12 -62 48 -80 184 -34 262 29 50 52 57 151 48
61 -6 66 -5 62 13 -3 17 -14 19 -101 22 -62 2 -97 -1 -97 -8z"/>
<path d="M5506 963 c-3 -4 -6 -19 -6 -35 0 -21 -5 -28 -20 -28 -13 0 -20 -7
-20 -20 0 -13 7 -20 20 -20 19 0 20 -7 20 -108 0 -100 2 -110 23 -130 32 -30
97 -31 97 -2 0 17 -7 20 -40 20 l-40 0 0 110 0 110 40 0 c33 0 40 3 40 20 0
17 -7 20 -40 20 -37 0 -40 2 -40 29 0 27 -20 47 -34 34z"/>
<path d="M4625 887 c-53 -32 -65 -60 -65 -147 0 -71 1 -73 37 -106 32 -30 44
-34 90 -34 29 0 53 5 53 10 0 6 6 10 13 10 8 0 22 9 32 20 14 15 17 36 16 104
0 92 -17 136 -52 136 -10 0 -21 5 -24 10 -8 14 -75 12 -100 -3z m120 -47 c14
-15 18 -38 19 -93 1 -91 -11 -107 -83 -107 -65 0 -81 21 -81 106 0 71 6 94 26
94 8 0 14 5 14 10 0 6 20 10 43 10 31 0 49 -6 62 -20z"/>
<path d="M4887 893 c-4 -3 -7 -71 -7 -150 0 -136 1 -143 20 -143 19 0 20 7 20
108 0 100 2 110 23 130 16 15 36 22 65 22 39 0 43 -3 57 -36 10 -24 15 -69 15
-130 0 -87 1 -94 20 -94 19 0 20 7 20 91 0 116 -14 166 -54 190 -33 20 -106
26 -106 9 0 -5 -9 -10 -19 -10 -11 0 -23 5 -26 10 -7 12 -19 13 -28 3z"/>
<path d="M5213 880 c-28 -17 -33 -26 -33 -58 0 -40 31 -82 60 -82 8 0 38 -6
68 -12 52 -13 53 -13 50 -48 l-3 -35 -87 -3 c-66 -2 -88 -6 -88 -16 0 -20 23
-26 101 -26 90 0 119 22 119 88 0 35 -4 45 -20 49 -11 3 -20 9 -20 14 0 5 -18
9 -40 9 -22 0 -40 4 -40 9 0 5 -12 11 -27 13 -25 3 -28 7 -28 38 l0 35 83 3
c71 2 83 5 78 18 -3 9 -6 18 -6 20 0 2 -30 4 -67 4 -50 0 -77 -5 -100 -20z"/>
<path d="M5687 893 c-9 -8 -9 -256 -1 -277 3 -9 12 -16 20 -16 11 0 14 21 14
98 0 110 6 142 26 142 8 0 14 5 14 10 0 6 18 10 40 10 33 0 40 3 40 20 0 16
-7 20 -34 20 -19 0 -38 -4 -41 -10 -3 -5 -15 -10 -26 -10 -10 0 -19 5 -19 10
0 11 -23 14 -33 3z"/>
<path d="M5906 893 c-10 -11 -7 -221 4 -228 6 -3 10 -14 10 -23 0 -9 12 -23
27 -29 32 -15 103 -17 103 -3 0 14 33 13 47 -1 7 -7 19 -9 27 -6 13 5 16 28
16 136 0 136 -4 161 -25 161 -20 0 -23 -19 -23 -124 -1 -116 -13 -136 -83
-136 -61 0 -68 15 -69 141 0 82 -3 108 -14 112 -8 3 -17 3 -20 0z"/>
<path d="M6200 881 c0 -11 5 -23 10 -26 6 -3 10 -17 10 -31 0 -13 4 -24 8 -24
4 0 14 -21 21 -47 8 -25 20 -58 27 -72 44 -94 46 -99 33 -118 -6 -11 -24 -25
-40 -32 -36 -16 -37 -31 -4 -31 31 0 95 60 95 89 0 11 5 23 10 26 6 3 10 17
10 30 0 13 5 27 10 30 6 3 10 16 10 29 0 12 4 26 8 32 14 15 56 153 49 160
-12 12 -37 -5 -37 -26 0 -11 -4 -20 -10 -20 -5 0 -10 -11 -10 -24 0 -14 -4
-28 -10 -31 -5 -3 -10 -17 -10 -30 0 -13 -4 -27 -10 -30 -5 -3 -10 -16 -10
-28 0 -12 -7 -31 -16 -42 -14 -19 -15 -19 -20 3 -4 12 -10 22 -15 22 -5 0 -9
11 -9 24 0 14 -4 28 -10 31 -5 3 -10 17 -10 30 0 13 -4 27 -10 30 -5 3 -10 14
-10 24 0 9 -6 29 -12 44 -15 31 -48 37 -48 8z"/>
<path d="M6565 887 c-50 -31 -65 -63 -65 -143 0 -59 11 -86 50 -121 21 -19 36
-23 98 -23 65 0 72 2 72 20 0 18 -7 20 -68 20 -61 0 -71 3 -90 25 -40 46 -31
55 56 55 83 0 90 3 110 38 11 19 11 30 0 60 -7 20 -18 42 -23 47 -37 35 -101
45 -140 22z"/>
<path d="M6817 887 c-11 -28 -8 -275 3 -282 23 -14 24 -5 28 141 2 90 20 114
82 114 63 0 69 -14 70 -147 0 -106 1 -113 20 -113 19 0 20 7 20 108 0 113 -11
158 -42 168 -10 3 -18 10 -18 15 0 12 -87 12 -95 -1 -3 -5 -15 -10 -26 -10
-10 0 -19 5 -19 10 0 15 -17 12 -23 -3z"/>
<path d="M7472 885 c-45 -24 -55 -51 -54 -144 1 -84 2 -87 34 -113 44 -38 127
-40 161 -5 38 40 47 65 47 128 0 76 -26 129 -64 129 -8 0 -18 5 -21 10 -9 14
-75 11 -103 -5z m126 -50 c17 -20 22 -38 22 -85 0 -86 -18 -110 -82 -110 -71
0 -80 13 -79 112 1 93 11 107 77 108 31 0 45 -6 62 -25z"/>
<path d="M8224 877 c-64 -66 -56 -210 13 -255 41 -27 153 -31 173 -7 25 30 5
44 -72 47 -71 3 -73 4 -76 31 l-3 27 68 0 c90 0 98 6 97 75 -1 48 -5 59 -30
80 -24 21 -39 25 -89 24 -48 0 -64 -5 -81 -22z"/>
<path d="M8692 753 l3 -148 33 -3 32 -3 0 150 0 151 -35 0 -35 0 2 -147z"/>
<path d="M8868 875 c-55 -55 -53 -202 4 -250 26 -22 39 -25 104 -25 57 0 76 3
80 15 11 29 -16 45 -75 45 -31 0 -62 5 -69 12 -16 16 -15 128 2 151 9 12 27
17 64 17 63 0 82 7 82 30 0 24 -19 30 -99 30 -59 0 -72 -3 -93 -25z"/>
<path d="M9137 893 c-2 -5 -4 -71 -3 -148 l1 -140 33 -3 32 -3 0 150 0 151
-29 0 c-17 0 -32 -3 -34 -7z"/>
<path d="M9602 878 c2 -19 10 -23 43 -26 82 -5 105 -12 105 -32 0 -20 -9 -24
-44 -20 -10 1 -37 -4 -60 -11 -48 -14 -66 -42 -66 -102 0 -31 6 -45 28 -63 28
-25 85 -33 97 -14 8 13 55 13 55 -1 0 -6 12 -9 28 -7 l27 3 3 111 3 111 -34
36 c-33 36 -34 37 -111 37 -75 0 -77 -1 -74 -22z"/>
</g>
</svg>
